<svg width="138" height="152" viewBox="0 0 138 152" fill="none" xmlns="http://www.w3.org/2000/svg">
<g id="Dollar">
<g id="Path" filter="url(#filter0_d_1_1309)">
<path fill-rule="evenodd" clip-rule="evenodd" d="M57.8457 90.3962C53.9611 88.6726 66.1702 86.7753 60.0055 76.1653C50.067 72.279 47.0276 70.6199 40.1539 65.5027C22.4363 52.3126 34.3633 33.8928 37.0892 27.7916C42.2649 16.2072 47.7255 6.76023 56.0455 6.35487C64.3655 5.94952 87.8244 16.9667 102.469 27.5609C117.114 38.1552 97.549 70.0187 86.9145 79.2216C83.9528 81.7847 78.6541 81.7437 72.1153 80.1573C68.9193 89.2564 62.968 90.34 57.8457 90.3962Z" fill="#141C3A"/>
</g>
<path id="Combined Shape" fill-rule="evenodd" clip-rule="evenodd" d="M69.3852 29.0899C69.6989 27.1814 70 25.2074 70.2883 23.1681L75.7027 23.8052C75.394 25.9895 75.0705 28.1039 74.7321 30.1484C79.7752 31.5462 84.2525 33.7173 84.2525 33.7173L81.072 38.4685C81.072 38.4685 77.5087 36.5901 73.8487 35.1467C73.3708 37.6802 72.8669 40.0933 72.3366 42.3863C72.5264 42.5012 72.7497 42.6354 73.3711 43.0088C76.2239 44.7228 77.508 45.5748 78.766 46.7215C82.7391 50.3431 80.5443 58.6213 75.2414 62.3588C72.9643 63.9637 69.4767 63.269 65.947 61.7239C65.191 63.2818 64.404 64.7071 63.5856 66.0001L59.0283 63.0338C59.7564 61.8834 60.4617 60.5991 61.1437 59.1811C56.7868 56.5275 53.2871 53.562 53.2871 53.562L57.59 49.9281C57.59 49.9281 60.126 52.2218 63.1751 54.3789C64.1984 51.6455 65.1598 48.5648 66.0573 45.1382C64.4742 44.0088 63.3325 42.9674 62.3857 41.7468C60.218 38.9527 59.7281 35.6532 61.3153 32.0884C62.5393 29.3392 65.745 28.728 69.3852 29.0899ZM68.6014 33.5803C67.341 33.4093 66.4113 33.5571 66.114 34.225C65.3673 35.9019 65.7157 37.3061 67.5195 38.9879C67.8935 37.2563 68.2542 35.4537 68.6014 33.5803ZM70.868 48.1859C69.9484 51.5003 68.9609 54.5109 67.9039 57.219C69.7798 58.0827 71.4657 58.4341 72.493 57.7101C73.8126 56.78 74.8386 55.2367 75.2625 53.6379C75.6052 52.3451 75.4643 51.4077 75.1395 51.1116C74.2535 50.3039 73.1838 49.584 70.868 48.1859Z" fill="white"/>
</g>
<defs>
<filter id="filter0_d_1_1309" x="0.633545" y="6.34424" width="137.08" height="144.052" filterUnits="userSpaceOnUse" color-interpolation-filters="sRGB">
<feFlood flood-opacity="0" result="BackgroundImageFix"/>
<feColorMatrix in="SourceAlpha" type="matrix" values="0 0 0 0 0 0 0 0 0 0 0 0 0 0 0 0 0 0 127 0" result="hardAlpha"/>
<feOffset dy="20"/>
<feGaussianBlur stdDeviation="10"/>
<feColorMatrix type="matrix" values="0 0 0 0 0 0 0 0 0 0 0 0 0 0 0 0 0 0 0.2 0"/>
<feBlend mode="normal" in2="BackgroundImageFix" result="effect1_dropShadow_1_1309"/>
<feBlend mode="normal" in="SourceGraphic" in2="effect1_dropShadow_1_1309" result="shape"/>
</filter>
</defs>
</svg>
