<svg width="24" height="24" viewBox="0 0 24 24" fill="none" xmlns="http://www.w3.org/2000/svg">
<g id="Icon ">
<path id="Oval" opacity="0.15" fill-rule="evenodd" clip-rule="evenodd" d="M12 24C18.6274 24 24 18.6274 24 12C24 5.37258 18.6274 0 12 0C5.37258 0 0 5.37258 0 12C0 18.6274 5.37258 24 12 24Z" fill="#36B37E"/>
<path id="Icon" d="M10.3985 15.8242L7.13675 12.582C7.0456 12.4909 7.00003 12.3737 7.00003 12.2305C7.00003 12.0872 7.0456 11.97 7.13675 11.8789L7.8594 11.1758C7.95055 11.0716 8.06448 11.0195 8.2012 11.0195C8.33792 11.0195 8.45836 11.0716 8.56253 11.1758L10.75 13.3633L15.4375 8.67578C15.5417 8.57161 15.6621 8.51953 15.7988 8.51953C15.9356 8.51953 16.0495 8.57161 16.1406 8.67578L16.8633 9.3789C16.9544 9.47005 17 9.58724 17 9.73047C17 9.87369 16.9544 9.99088 16.8633 10.082L11.1016 15.8242C11.0104 15.9284 10.8933 15.9805 10.75 15.9805C10.6068 15.9805 10.4896 15.9284 10.3985 15.8242Z" fill="#36B37E"/>
</g>
</svg>
