<svg width="30" height="24" viewBox="0 0 30 24" fill="none" xmlns="http://www.w3.org/2000/svg">
<g id="Icon  4">
<path id="Oval" opacity="0.15" fill-rule="evenodd" clip-rule="evenodd" d="M14.6739 24C22.3819 24 28.6305 18.6274 28.6305 12C28.6305 5.37258 22.3819 0 14.6739 0C6.96596 0 0.717407 5.37258 0.717407 12C0.717407 18.6274 6.96596 24 14.6739 24Z" fill="#36B37E"/>
<path id="Icon" d="M12.8112 15.8242L9.01765 12.582C8.91165 12.4909 8.85864 12.3737 8.85864 12.2305C8.85864 12.0872 8.91165 11.97 9.01765 11.8789L9.85813 11.1758C9.96414 11.0716 10.0966 11.0195 10.2557 11.0195C10.4147 11.0195 10.5547 11.0716 10.6759 11.1758L13.22 13.3633L18.6718 8.67578C18.7929 8.57161 18.933 8.51953 19.092 8.51953C19.251 8.51953 19.3836 8.57161 19.4896 8.67578L20.33 9.3789C20.436 9.47005 20.489 9.58724 20.489 9.73047C20.489 9.87369 20.436 9.99088 20.33 10.082L13.6289 15.8242C13.5229 15.9284 13.3866 15.9805 13.22 15.9805C13.0535 15.9805 12.9172 15.9284 12.8112 15.8242Z" fill="#36B37E"/>
</g>
</svg>
