<svg width="66" height="66" viewBox="0 0 66 66" fill="none" xmlns="http://www.w3.org/2000/svg">
<g id="Icon  11">
<g id="Border" opacity="0.2">
<rect id="Shape" x="1" y="1" width="64" height="64" rx="16" stroke="#1565D8"/>
</g>
<g id="Icon_Car">
<path id="Path" fill-rule="evenodd" clip-rule="evenodd" d="M37.0567 41.8H28.9432C28.5551 39.0862 26.2211 37 23.4 37C20.6176 37 18.3093 39.0291 17.8738 41.6882C16.9033 41.3805 16.2 40.4724 16.2 39.4V33.3777C16.2 31.8626 17.056 30.4776 18.4111 29.8L19.6583 29H41.4529L46.5844 30.101C47.8146 30.3471 48.818 31.1419 49.3605 32.2H47.4C46.0745 32.2 45 33.2745 45 34.6C45 35.9255 46.0745 37 47.4 37H49.7999V39.4C49.7999 40.4724 49.0966 41.3805 48.1261 41.6882C47.6907 39.0291 45.3823 37 42.6 37C39.7788 37 37.4448 39.0862 37.0567 41.8ZM40.4929 27.4H30.6V21H34.3881C35.7932 21 37.0952 21.7372 37.8181 22.942L40.4929 27.4ZM20.2983 27.4L21.8525 23.5144C22.46 21.9958 23.9308 21 25.5665 21H29V27.4H20.2983ZM49.8 34.0234V35.4H47.4C46.9581 35.4 46.6 35.0418 46.6 34.6C46.6 34.1582 46.9581 33.8 47.4 33.8H49.7938C49.7979 33.874 49.8 33.9485 49.8 34.0234ZM33 33.8H34.6C35.0418 33.8 35.4 33.4418 35.4 33C35.4 32.5582 35.0418 32.2 34.6 32.2H33C32.5581 32.2 32.2 32.5582 32.2 33C32.2 33.4418 32.5581 33.8 33 33.8Z" fill="#1565D8"/>
<path id="Path_2" opacity="0.3" fill-rule="evenodd" clip-rule="evenodd" d="M42.6 46.6001C40.3908 46.6001 38.6 44.8092 38.6 42.6001C38.6 40.391 40.3908 38.6001 42.6 38.6001C44.8091 38.6001 46.6 40.391 46.6 42.6001C46.6 44.8092 44.8091 46.6001 42.6 46.6001Z" fill="#1565D8"/>
<path id="Path_3" opacity="0.3" fill-rule="evenodd" clip-rule="evenodd" d="M23.4 46.6001C21.1909 46.6001 19.4 44.8092 19.4 42.6001C19.4 40.391 21.1909 38.6001 23.4 38.6001C25.6092 38.6001 27.4 40.391 27.4 42.6001C27.4 44.8092 25.6092 46.6001 23.4 46.6001Z" fill="#1565D8"/>
</g>
</g>
</svg>
