<svg width="198" height="198" viewBox="0 0 198 198" fill="none" xmlns="http://www.w3.org/2000/svg">
<g id="Icon  10">
<g id="Border" opacity="0.2">
<rect id="Shape" x="3" y="3" width="192" height="192" rx="16" stroke="#1565D8"/>
</g>
<g id="Icon_Blood_Donation">
<path id="Path" fill-rule="evenodd" clip-rule="evenodd" d="M63 135V99.7985L68.5155 94.9299C72.1824 91.5892 77.5269 90.849 81.9637 93.0674L95.1454 99.6629C99.1136 101.364 100.952 105.959 99.2512 109.927C98.9739 110.574 98.6167 111.169 98.1947 111.702L108.488 113.762L137.989 104.629C142.712 103.246 147.661 105.954 149.044 110.677C149.765 113.139 149.39 115.793 148.014 117.958C146.905 119.705 145.963 120.913 145.083 121.646C143.217 123.2 134.836 131.375 116.143 142.79C113.048 144.68 109.264 145.069 105.85 143.849L81.0955 135H63Z" fill="#1565D8"/>
<path id="Path_2" opacity="0.3" fill-rule="evenodd" clip-rule="evenodd" d="M101.4 84.5994C101.4 96.6061 107.323 101.399 118.2 101.399C129.077 101.399 135 96.6061 135 84.5994C135 75.9593 129.961 65.8819 120.025 54.2413C119.067 53.1188 117.333 53.1188 116.374 54.2413C106.439 65.8819 101.4 75.9593 101.4 84.5994ZM54.6656 92.9994H55.8656V138.599H54.6656C52.6773 138.599 51.0656 140.211 51.0656 142.199C51.0656 144.188 52.6773 145.799 54.6656 145.799H59.4656C61.4538 145.799 63.0656 144.188 63.0656 142.199V89.3994C63.0656 87.4112 61.4538 85.7994 59.4656 85.7994H54.6656C52.6773 85.7994 51.0656 87.4112 51.0656 89.3994C51.0656 91.3876 52.6773 92.9994 54.6656 92.9994Z" fill="#1565D8"/>
</g>
</g>
</svg>
