<svg width="198" height="198" viewBox="0 0 198 198" fill="none" xmlns="http://www.w3.org/2000/svg">
<g id="Icon  9">
<g id="Border" opacity="0.2">
<rect id="Shape" x="3" y="3" width="192" height="192" rx="16" stroke="#1565D8"/>
</g>
<g id="Icon_Home">
<path id="Path" opacity="0.3" fill-rule="evenodd" clip-rule="evenodd" d="M97.08 120.601C91.513 120.601 87 125.114 87 130.681V146.041C87 147.896 88.5043 149.401 90.36 149.401H107.64C109.496 149.401 111 147.896 111 146.041V130.681C111 125.114 106.487 120.601 100.92 120.601H97.08Z" fill="#1565D8"/>
<path id="Path_2" fill-rule="evenodd" clip-rule="evenodd" d="M115.8 146.436V130.624C115.8 122.437 108.316 115.801 100.129 115.801H97.8706C89.6838 115.801 82.2 122.437 82.2 130.624V146.436C82.2 147.475 82.3784 148.473 82.7061 149.401H75.2824C67.0956 149.401 60.4589 142.764 60.4589 134.577V89.2282L53.5171 95.3023C52.2848 96.3806 50.4118 96.2557 49.3336 95.0234C48.2554 93.7912 48.3803 91.9182 49.6125 90.84L97.0478 49.3341C98.1655 48.3561 99.8345 48.3561 100.952 49.3341L148.388 90.84C149.62 91.9182 149.745 93.7912 148.666 95.0234C147.588 96.2557 145.715 96.3806 144.483 95.3023L137.541 89.2282V134.577C137.541 142.764 130.904 149.401 122.718 149.401H115.294C115.622 148.473 115.8 147.475 115.8 146.436Z" fill="#1565D8"/>
</g>
</g>
</svg>
