<svg width="66" height="66" viewBox="0 0 66 66" fill="none" xmlns="http://www.w3.org/2000/svg">
<g id="Icon  10">
<g id="Border" opacity="0.2">
<rect id="Shape" x="1" y="1" width="64" height="64" rx="16" stroke="#1565D8"/>
</g>
<g id="Icon_Blood_Donation">
<path id="Path" fill-rule="evenodd" clip-rule="evenodd" d="M21 45.0001V33.2662L22.8385 31.6433C24.0608 30.5297 25.8423 30.283 27.3212 31.0225L31.7151 33.221C33.0379 33.7878 33.6506 35.3197 33.0837 36.6424C32.9913 36.8581 32.8722 37.0562 32.7316 37.2339L36.1628 37.9205L45.9962 34.8764C47.5706 34.4154 49.2205 35.3181 49.6814 36.8924C49.9217 37.7131 49.7966 38.5976 49.3381 39.3195C48.9684 39.9016 48.6542 40.3044 48.3611 40.5486C47.7391 41.0667 44.9454 43.7918 38.7142 47.5967C37.6826 48.2267 36.4214 48.3563 35.2832 47.9495L27.0318 45.0001H21Z" fill="#1565D8"/>
<path id="Path_2" opacity="0.3" fill-rule="evenodd" clip-rule="evenodd" d="M33.8 28.1998C33.8 32.202 35.7744 33.7998 39.4 33.7998C43.0256 33.7998 45 32.202 45 28.1998C45 25.3198 43.3204 21.9606 40.0085 18.0804C39.6891 17.7063 39.1109 17.7063 38.7915 18.0804C35.4795 21.9606 33.8 25.3198 33.8 28.1998ZM18.2219 30.9998H18.6219V46.1998H18.2219C17.5591 46.1998 17.0219 46.7371 17.0219 47.3998C17.0219 48.0625 17.5591 48.5998 18.2219 48.5998H19.8219C20.4846 48.5998 21.0219 48.0625 21.0219 47.3998V29.7998C21.0219 29.1371 20.4846 28.5998 19.8219 28.5998H18.2219C17.5591 28.5998 17.0219 29.1371 17.0219 29.7998C17.0219 30.4625 17.5591 30.9998 18.2219 30.9998Z" fill="#1565D8"/>
</g>
</g>
</svg>
