<svg width="66" height="66" viewBox="0 0 66 66" fill="none" xmlns="http://www.w3.org/2000/svg">
<g id="Icon  9">
<g id="Border" opacity="0.2">
<rect id="Shape" x="1" y="1" width="64" height="64" rx="16" stroke="#1565D8"/>
</g>
<g id="Icon_Home">
<path id="Path" opacity="0.3" fill-rule="evenodd" clip-rule="evenodd" d="M32.36 40.2002C30.5043 40.2002 29 41.7045 29 43.5602V48.6802C29 49.2988 29.5014 49.8002 30.12 49.8002H35.88C36.4986 49.8002 37 49.2988 37 48.6802V43.5602C37 41.7045 35.4957 40.2002 33.64 40.2002H32.36Z" fill="#1565D8"/>
<path id="Path_2" fill-rule="evenodd" clip-rule="evenodd" d="M38.6 48.812V43.5414C38.6 40.8124 36.1054 38.6002 33.3765 38.6002H32.6235C29.8946 38.6002 27.4 40.8124 27.4 43.5414V48.812C27.4 49.1585 27.4595 49.4911 27.5687 49.8002H25.0941C22.3652 49.8002 20.153 47.588 20.153 44.859V29.7427L17.839 31.7674C17.4283 32.1269 16.8039 32.0852 16.4445 31.6745C16.0851 31.2637 16.1268 30.6394 16.5375 30.28L32.3493 16.4447C32.7218 16.1187 33.2782 16.1187 33.6508 16.4447L49.4625 30.28C49.8733 30.6394 49.9149 31.2637 49.5555 31.6745C49.1961 32.0852 48.5718 32.1269 48.161 31.7674L45.8471 29.7427V44.859C45.8471 47.588 43.6348 49.8002 40.9059 49.8002H38.4313C38.5406 49.4911 38.6 49.1585 38.6 48.812Z" fill="#1565D8"/>
</g>
</g>
</svg>
