<svg width="30" height="32" viewBox="0 0 30 32" fill="none" xmlns="http://www.w3.org/2000/svg">
<g id="Icon  5">
<path id="Oval" opacity="0.15" fill-rule="evenodd" clip-rule="evenodd" d="M15 31.0049C23.2843 31.0049 30 24.2892 30 16.0049C30 7.72061 23.2843 1.00488 15 1.00488C6.71573 1.00488 0 7.72061 0 16.0049C0 24.2892 6.71573 31.0049 15 31.0049Z" fill="#36B37E"/>
<path id="Icon" d="M12.9981 20.7851L8.92096 16.7324C8.80703 16.6185 8.75006 16.472 8.75006 16.293C8.75006 16.1139 8.80703 15.9674 8.92096 15.8535L9.82428 14.9746C9.93821 14.8444 10.0806 14.7793 10.2515 14.7793C10.4224 14.7793 10.573 14.8444 10.7032 14.9746L13.4375 17.709L19.2969 11.8496C19.4271 11.7194 19.5777 11.6543 19.7486 11.6543C19.9195 11.6543 20.0619 11.7194 20.1758 11.8496L21.0791 12.7285C21.1931 12.8424 21.25 12.9889 21.25 13.168C21.25 13.347 21.1931 13.4935 21.0791 13.6074L13.877 20.7851C13.7631 20.9153 13.6166 20.9804 13.4375 20.9804C13.2585 20.9804 13.112 20.9153 12.9981 20.7851Z" fill="#36B37E"/>
</g>
</svg>
