<svg width="198" height="198" viewBox="0 0 198 198" fill="none" xmlns="http://www.w3.org/2000/svg">
<g id="Icon  11">
<g id="Border" opacity="0.2">
<rect id="Shape" x="3" y="3" width="192" height="192" rx="16" stroke="#1565D8"/>
</g>
<g id="Icon_Car">
<path id="Path" fill-rule="evenodd" clip-rule="evenodd" d="M111.17 125.4H86.8297C85.6652 117.258 78.6634 111 70.1999 111C61.8529 111 54.9278 117.087 53.6214 125.065C50.7098 124.141 48.5999 121.417 48.5999 118.2V100.133C48.5999 95.5879 51.1679 91.4327 55.2333 89.4L58.975 87H124.359L139.753 90.3031C143.444 91.0413 146.454 93.4258 148.081 96.6H142.2C138.223 96.6 135 99.8235 135 103.8C135 107.776 138.223 111 142.2 111H149.4V118.2C149.4 121.417 147.29 124.141 144.378 125.065C143.072 117.087 136.147 111 127.8 111C119.336 111 112.335 117.258 111.17 125.4ZM121.479 82.2H91.7999V63H103.164C107.38 63 111.286 65.2116 113.454 68.8261L121.479 82.2ZM60.895 82.2L65.5576 70.5433C67.38 65.9874 71.7925 63 76.6994 63H86.9999V82.2H60.895ZM149.4 102.07V106.2H142.2C140.874 106.2 139.8 105.125 139.8 103.8C139.8 102.475 140.874 101.4 142.2 101.4H149.381C149.394 101.622 149.4 101.845 149.4 102.07ZM98.9999 101.4H103.8C105.125 101.4 106.2 100.325 106.2 99C106.2 97.6745 105.125 96.6 103.8 96.6H98.9999C97.6744 96.6 96.5999 97.6745 96.5999 99C96.5999 100.325 97.6744 101.4 98.9999 101.4Z" fill="#1565D8"/>
<path id="Path_2" opacity="0.3" fill-rule="evenodd" clip-rule="evenodd" d="M127.8 139.8C121.173 139.8 115.8 134.428 115.8 127.8C115.8 121.173 121.173 115.8 127.8 115.8C134.427 115.8 139.8 121.173 139.8 127.8C139.8 134.428 134.427 139.8 127.8 139.8Z" fill="#1565D8"/>
<path id="Path_3" opacity="0.3" fill-rule="evenodd" clip-rule="evenodd" d="M70.2001 139.8C63.5727 139.8 58.2001 134.428 58.2001 127.8C58.2001 121.173 63.5727 115.8 70.2001 115.8C76.8275 115.8 82.2001 121.173 82.2001 127.8C82.2001 134.428 76.8275 139.8 70.2001 139.8Z" fill="#1565D8"/>
</g>
</g>
</svg>
