<svg width="420" height="398" viewBox="0 0 420 398" fill="none" xmlns="http://www.w3.org/2000/svg">
<g id="Image">
<path id="Oval" d="M145.384 61.9972C187.076 46.841 233.118 42.374 273.252 52.3005C313.438 62.2398 347.721 86.6293 365.584 129.098C387.232 180.566 370.309 218.28 356.095 249.958C355.268 251.801 354.451 253.624 353.65 255.427C336.324 294.465 298.602 327.179 253.532 343.563C169.871 373.976 79.0487 336.3 50.878 258.996C22.7568 181.827 61.5793 92.4626 145.384 61.9972Z" fill="#E3E8EB" stroke="white" stroke-width="2.5"/>
<mask id="mask0_1_1297" style="mask-type:luminance" maskUnits="userSpaceOnUse" x="39" y="45" width="339" height="311">
<path id="Oval_2" d="M145.384 61.9972C187.076 46.841 233.118 42.374 273.252 52.3005C313.438 62.2398 347.721 86.6293 365.584 129.098C387.232 180.566 370.309 218.28 356.095 249.958C355.268 251.801 354.451 253.624 353.65 255.427C336.324 294.465 298.602 327.179 253.532 343.563C169.871 373.976 79.0487 336.3 50.878 258.996C22.7568 181.827 61.5793 92.4626 145.384 61.9972Z" fill="white" stroke="white" stroke-width="2.5"/>
</mask>
<g mask="url(#mask0_1_1297)">
<rect id="Bitmap" x="-99" y="-79.5" width="585" height="438"/>
</g>
</g>
</svg>
