<svg width="147" height="158" viewBox="0 0 147 158" fill="none" xmlns="http://www.w3.org/2000/svg">
<g id="Like">
<g id="Shape" filter="url(#filter0_d_1_1314)">
<path fill-rule="evenodd" clip-rule="evenodd" d="M83.1007 15.9902C91.1858 14.0121 113.622 12.9434 128.622 51.5216C143.622 90.0999 103.937 120.079 75.5258 108.571C47.1143 97.0638 40.0227 75.0038 49.0154 50.0855C58.008 25.1671 75.0156 17.9684 83.1007 15.9902Z" fill="#36B37E"/>
</g>
<mask id="mask0_1_1314" style="mask-type:luminance" maskUnits="userSpaceOnUse" x="45" y="15" width="87" height="97">
<path id="Shape_2" fill-rule="evenodd" clip-rule="evenodd" d="M83.1007 15.9902C91.1858 14.0121 113.622 12.9434 128.622 51.5216C143.622 90.0999 103.937 120.079 75.5258 108.571C47.1143 97.0638 40.0227 75.0038 49.0154 50.0855C58.008 25.1671 75.0156 17.9684 83.1007 15.9902Z" fill="white"/>
</mask>
<g mask="url(#mask0_1_1314)">
<path id="Shape_3" fill-rule="evenodd" clip-rule="evenodd" d="M76.3578 56.8466C78.1324 52.1059 78.6822 47.0642 78.0084 41.7039C77.9442 41.1933 78.1881 40.6891 78.6338 40.4109C83.1264 37.6075 86.5433 39.2339 87.9464 44.6539C88.2187 45.7061 88.4196 46.6522 88.6973 48.1073C89.3177 51.3574 89.5694 52.2222 90.0882 52.7105C90.587 53.1799 91.7683 53.0693 94.3063 51.8532C95.1072 51.4695 95.9051 51.064 96.7844 50.5982C97.1725 50.3925 99.9593 48.8779 100.677 48.5119C102.047 47.8135 103.054 47.4035 103.985 47.2133C106.508 46.6982 108.248 47.9208 109.284 50.8785C111.109 56.0871 112.732 67.0971 112.55 71.3613C112.364 75.7188 110.568 77.826 105.307 79.3341C101.924 80.3037 96.6963 81.7043 89.6002 83.5424C87.7816 83.9853 86.0512 84.0792 84.4214 83.8246C84.6067 82.8803 84.5852 81.8839 84.3207 80.8966L78.8395 60.4404C78.4371 58.9387 77.5372 57.7 76.3578 56.8466ZM68.2744 59.0951L71.0997 58.3381C73.4403 57.7109 75.7854 58.8734 76.3377 60.9345L81.6709 80.8384C82.2232 82.8995 80.7735 85.0788 78.4329 85.706L75.6076 86.463C73.267 87.0902 70.9219 85.9277 70.3696 83.8666L65.0363 63.9627C64.4841 61.9015 65.9338 59.7223 68.2744 59.0951Z" fill="#FCFCFC"/>
</g>
</g>
<defs>
<filter id="filter0_d_1_1314" x="0.351746" y="0.221924" width="146.552" height="155.839" filterUnits="userSpaceOnUse" color-interpolation-filters="sRGB">
<feFlood flood-opacity="0" result="BackgroundImageFix"/>
<feColorMatrix in="SourceAlpha" type="matrix" values="0 0 0 0 0 0 0 0 0 0 0 0 0 0 0 0 0 0 127 0" result="hardAlpha"/>
<feOffset dx="-10" dy="10"/>
<feGaussianBlur stdDeviation="10"/>
<feColorMatrix type="matrix" values="0 0 0 0 0 0 0 0 0 0 0 0 0 0 0 0 0 0 0.25 0"/>
<feBlend mode="normal" in2="BackgroundImageFix" result="effect1_dropShadow_1_1314"/>
<feBlend mode="normal" in="SourceGraphic" in2="effect1_dropShadow_1_1314" result="shape"/>
</filter>
</defs>
</svg>
