<svg xmlns="http://www.w3.org/2000/svg" width="77" height="24" viewBox="0 0 77 24">
    <defs>
        <linearGradient id="a" x1="50%" x2="50%" y1="0%" y2="100%">
            <stop offset="0%" stop-color="#254A72"/>
            <stop offset="100%" stop-color="#10243E"/>
        </linearGradient>
    </defs>
    <g fill="none" fill-rule="evenodd">
        <path fill="url(#a)" fill-rule="nonzero" d="M36.014 4.516l2.623.01c.257 0 .504.088.74.262.235.174.389.39.46.65l1.747 5.678c.436 1.393.878 2.357 1.327 2.893.449.536.98.803 1.594.803l2.654-9.374c.07-.26.21-.476.42-.65.209-.174.442-.261.7-.261h2.814c.222 0 .387.071.494.214.106.143.16.261.16.355a.871.871 0 0 1-.027.234l-3.494 12.51c-.623 2.214-1.394 3.794-2.314 4.74-.92.947-2.105 1.42-3.554 1.42l-.558-.003c-1.157-.012-1.996-.065-2.517-.158-.6-.107-.975-.239-1.127-.395a.757.757 0 0 1-.226-.542v-1.473c0-.242.075-.44.226-.596a.78.78 0 0 1 .587-.235h.494l1.747.228c1.061 0 1.852-.662 2.371-1.987.045-.115-1.887.037-3.518-2.006-1.631-2.044-1.733-2.706-2.462-5.045l-1.987-6.469a.706.706 0 0 1-.04-.248c0-.093.055-.207.166-.341.111-.134.278-.205.5-.214zm23.828-.257c2.116 0 3.814.475 5.095 1.426 1.28.951 1.92 2.422 1.92 4.413v8.29a.8.8 0 0 1-.227.59.792.792 0 0 1-.586.227H63.47a.78.78 0 0 1-.587-.234.805.805 0 0 1-.227-.583v-.415c-1.405 1.01-3.025 1.511-4.861 1.507-1.836-.005-3.345-.417-4.528-1.239-1.174-.821-1.76-1.982-1.76-3.482 0-1.5.589-2.652 1.767-3.455 1.178-.804 2.696-1.206 4.554-1.206h4.415c0-1.044-.218-1.772-.654-2.183-.436-.41-1.198-.616-2.287-.616-1.017 0-1.75.235-2.202.706l-.092.104c-.44.54-1.826.357-3.062.119-1.237-.239-1.317-.87-1.207-1.198.621-1.847 2.989-2.771 7.103-2.771zm-52.04 0c2.445 0 4.352.64 5.721 1.922 1.37 1.281 2.054 3.118 2.054 5.511v.763a.81.81 0 0 1-.233.596.802.802 0 0 1-.594.235H4.708c.089 1.098.402 1.897.94 2.397.538.5 1.398.75 2.58.75 1.183 0 1.992-.268 2.428-.804.436-.535 1.27-.453 2.558-.273 1.288.18 1.578.862 1.536 1.077-.408 2.11-2.548 3.048-6.961 3.04-2.454 0-4.366-.652-5.735-1.955C.684 16.214 0 14.338 0 11.886c0-2.45.69-4.335 2.067-5.652C3.445 4.917 5.357 4.26 7.802 4.26zM21.832 0c.231 0 .425.078.58.234a.81.81 0 0 1 .234.596V6.2c1.53-1.294 3.158-1.941 4.888-1.941s3.136.529 4.22 1.587c1.086 1.058 1.628 2.676 1.628 4.855v7.687a.802.802 0 0 1-.827.817h-2.974a.786.786 0 0 1-.58-.234.793.793 0 0 1-.234-.583v-7.687c0-2.134-.849-2.786-2.547-2.786-1.111 0-2.303 1.142-3.574 2.419v8.054a.793.793 0 0 1-.234.583.786.786 0 0 1-.58.234h-2.987a.786.786 0 0 1-.58-.234.793.793 0 0 1-.234-.583V.83a.81.81 0 0 1 .234-.596.786.786 0 0 1 .58-.234h2.987zm40.41 13.138h-4.094c-.622 0-1.113.152-1.473.456a1.47 1.47 0 0 0-.54 1.178c0 .482.186.88.56 1.192.373.313.902.469 1.587.469 1.264 0 2.486-.342 3.666-1.027l.295-.178v-2.09zM7.796 7.3c-1.97 0-3.007 1.054-3.114 3.16h6.202c-.09-2.106-1.118-3.16-3.088-3.16z"/>
        <circle cx="73.714" cy="8.571" r="3.429" fill="#1576D8"/>
    </g>
</svg>
