<svg width="818" height="924" viewBox="0 0 818 924" fill="none" xmlns="http://www.w3.org/2000/svg">
<g id="Pattern">
<path id="Path" opacity="0.05" fill-rule="evenodd" clip-rule="evenodd" d="M289.506 47.6464C162.26 120.401 78.8664 192.979 32.2803 278.379C6.63522 325.391 -2.06529 358.154 2.47031 392.955C6.619 424.787 20.4037 456.601 55.9268 521.413C70.8474 548.636 70.4294 592.312 58.521 654.473C55.6744 669.332 52.3066 684.7 47.7771 703.967C48.8584 699.367 37.6836 746.194 35.2495 757.168C31.2611 775.148 29.0416 787.905 28.4103 797.593C24.5306 857.138 64.5164 901.324 128.823 917.431C191.019 933.01 263.204 918.829 312.883 878.456C319.549 873.039 336.546 859.153 346.634 850.911C350.557 847.706 353.435 845.354 354.255 844.686C369.499 832.265 380.702 823.263 391.265 815.001C417.232 794.691 437.959 780.033 457.944 768.208C515.268 734.291 570.573 722.256 652.574 727.995C689.742 730.597 724.711 715.655 753.657 686.637C780.582 659.644 800.874 621.689 810.78 580.503C820.905 538.405 819.557 495.732 806.123 459.947C791.323 420.524 762.671 391.027 721.173 375.392C676.157 358.431 656.775 337.302 656.286 309.656C656.077 297.87 659.205 284.829 665.563 269.042C670.187 257.562 671.162 255.558 686.988 224.014C703.911 190.287 712.023 170.315 716.001 148.059C721.198 118.981 716.57 92.5666 699.929 67.2943C674.039 27.9762 604.759 4.40146 517.589 1.40269C433.037 -1.50597 345.52 15.6198 289.506 47.6464ZM5.44515 392.567C1.00357 358.488 9.54618 326.319 34.9139 279.816C81.1859 194.992 164.188 122.755 290.995 50.2508C346.474 18.53 433.451 1.51002 517.486 4.40092C603.776 7.3694 672.212 30.6572 697.423 68.9441C713.623 93.5466 718.115 119.181 713.048 147.531C709.135 169.418 701.105 189.188 684.307 222.669C668.426 254.321 667.45 256.327 662.781 267.921C656.285 284.049 653.07 297.456 653.286 309.709C653.801 338.762 674.058 360.846 720.116 378.2C760.789 393.525 788.813 422.374 803.314 461.001C816.526 496.193 817.855 538.259 807.863 579.801C798.082 620.469 778.053 657.931 751.533 684.518C723.17 712.952 689.03 727.54 652.784 725.003C570.192 719.222 514.281 731.389 456.416 765.626C436.303 777.527 415.477 792.255 389.417 812.638C378.835 820.914 367.618 829.927 352.36 842.361C351.538 843.03 348.652 845.388 344.72 848.601C334.629 856.845 317.651 870.716 310.991 876.128C262.067 915.887 190.857 929.877 129.552 914.521C66.5415 898.738 27.6282 855.738 31.404 797.788C32.0227 788.292 34.2209 775.658 38.1783 757.817C40.6063 746.872 51.7731 700.078 50.6974 704.653C55.2357 685.349 58.6118 669.944 61.4674 655.038C73.5024 592.216 73.9254 548.01 58.5575 519.972C23.2131 455.485 9.52926 423.904 5.44515 392.567Z" fill="white"/>
<path id="Path_2" opacity="0.15" fill-rule="evenodd" clip-rule="evenodd" d="M458.675 37.6006C396.343 44.0032 326.077 69.5174 264.283 105.764C261.441 107.431 253.985 111.691 244.599 117.054C223.121 129.327 191.533 147.376 181.976 153.353C152.2 171.977 132.438 189.202 112.975 214.852C93.7821 240.145 74.5902 274.406 50.6486 326.058C41.0198 353.594 39.7059 377.473 45.3294 400.489C49.6524 418.182 56.3341 431.98 71.384 457.577C71.8781 458.417 72.3741 459.26 73.3649 460.942C90.6537 490.312 97.5817 504.842 101.767 524.898C107.27 551.266 104.079 579.41 90.2265 612.725C60.1737 689.458 50.4917 751.9 59.3529 799.469C67.276 842.001 89.9553 871.643 123.922 887.364C185.62 915.92 278.807 894.051 336.516 840.067C343.315 833.706 363.434 814.781 368.306 810.199L369.374 809.195C381.618 797.7 390.502 789.458 398.924 781.819C419.776 762.907 436.415 749.039 452.453 737.503C503.3 700.929 552.271 685.877 627.893 685.877C692.802 685.877 745.672 624.925 759.028 545.373C765.395 507.449 761.558 469.724 747.433 438.846C731.869 404.822 704.634 380.452 666.873 369.169C626.187 357.011 607.753 339.646 605.494 315.444C604.529 305.105 606.426 293.45 610.994 279.209C614.346 268.757 615.789 265.164 627.025 238.278C642.459 201.342 648.768 180.529 649.023 157.249C649.259 135.671 643.025 116.063 629.086 97.8131C591.785 48.9766 532.477 30.0198 458.675 37.6006ZM246 119.709C255.431 114.32 262.933 110.033 265.8 108.352C327.247 72.3089 397.114 46.9398 458.981 40.5849C531.833 33.1018 590.113 51.73 626.701 99.6341C640.226 117.341 646.252 136.294 646.023 157.216C645.774 179.987 639.547 200.531 624.257 237.121C612.977 264.115 611.528 267.721 608.137 278.292C603.456 292.885 601.499 304.916 602.507 315.723C604.896 341.321 624.267 359.568 666.014 372.043C702.932 383.075 729.494 406.842 744.705 440.094C758.566 470.395 762.342 507.516 756.069 544.876C742.931 623.132 691.108 682.877 627.893 682.877C551.655 682.877 502.07 698.118 450.701 735.068C434.557 746.68 417.837 760.615 396.908 779.597C388.471 787.25 379.577 795.502 367.32 807.008L366.202 808.059C361.243 812.724 341.239 831.54 334.466 837.876C277.595 891.077 185.687 912.646 125.182 884.642C92.105 869.332 70.0489 840.505 62.3022 798.92C53.5569 751.974 63.1551 690.072 93.0082 613.848C107.074 580.02 110.334 551.265 104.704 524.285C100.431 503.81 93.3994 489.062 75.9502 459.42C74.9593 457.737 74.4637 456.896 73.9701 456.056C59.0618 430.7 52.4767 417.101 48.2437 399.776C42.7595 377.331 44.0409 354.043 53.4256 327.184C77.2294 275.846 96.3251 241.757 115.365 216.665C134.592 191.326 154.082 174.338 183.567 155.897C193.063 149.957 224.529 131.978 246 119.709Z" fill="white"/>
<path id="Path_3" opacity="0.2" fill-rule="evenodd" clip-rule="evenodd" d="M454.441 72.4808C412.166 82.0336 366.771 102.213 284.855 145.045C231.884 172.741 214.347 182.596 198.084 194.659C182.559 206.174 171.999 217.813 161.345 234.934C154.802 245.45 148.417 257.508 137.564 279.403C136.629 281.29 134.011 286.597 131.145 292.409C127.714 299.364 123.926 307.043 122.236 310.454C115.455 324.138 109.314 336.355 102.751 349.157C87.1931 379.505 81.8071 399.359 84.7891 412.703C87.2233 423.595 93.7393 429.184 109.03 436.602C109.659 436.908 111.291 437.691 112.583 438.311C113.358 438.684 114.011 438.997 114.252 439.114C116.328 440.117 117.966 440.929 119.547 441.747C136.723 450.638 146.3 460.739 150.904 479.179C156.881 503.12 152.68 539.182 136.077 591.5C134.639 596.03 133.174 600.619 131.247 606.638C131.478 605.916 127.578 618.085 126.523 621.382C122.764 633.139 120.106 641.562 117.618 649.665C111.283 670.293 106.795 686.54 103.515 701.231C95.6582 736.42 94.996 762.405 102.679 783.107C122.005 835.18 163.104 855.354 217.031 847.319C261.12 840.75 311.146 814.77 344.348 783.68C345.632 782.478 348.906 779.394 352.777 775.747C359.482 769.431 367.978 761.426 371.036 758.583C380.28 749.99 387.462 743.606 394.401 737.904C418.271 718.288 440.593 706.083 473.536 695.673C482.621 692.802 490.778 689.698 498.419 686.277C505.351 683.174 511.554 679.969 518.643 675.948C518.997 675.748 520.127 675.094 521.651 674.213C525.7 671.872 532.524 667.927 534.906 666.623C551.961 657.289 566.123 653.494 590.09 653.494C645.001 653.494 689.7 601.912 700.989 534.61C706.369 502.531 703.126 470.616 691.185 444.488C678.023 415.687 654.986 395.054 623.053 385.503C588.862 375.276 571.777 355.828 567.46 326.658C564.125 304.121 567.403 281.607 578.29 235.332C578.52 234.356 578.738 233.43 579.095 231.917C587.866 194.711 590.892 179.02 591.768 160.544C592.934 135.945 588.09 117.083 575.531 102.929C545.874 69.5052 506.723 60.6669 454.441 72.4808ZM199.872 197.068C215.956 185.138 233.437 175.314 286.245 147.703C367.929 104.993 413.168 84.8828 455.102 75.407C506.4 63.8155 544.433 72.4015 573.287 104.921C585.252 118.405 589.904 136.516 588.771 160.402C587.907 178.625 584.901 194.214 576.175 231.229C575.962 232.132 575.798 232.826 575.652 233.447C575.554 233.866 575.463 234.251 575.37 234.645C564.392 281.305 561.081 304.045 564.493 327.097C568.981 357.428 586.894 377.819 622.193 388.377C653.283 397.676 675.648 417.707 688.457 445.735C700.134 471.287 703.316 502.598 698.03 534.114C686.959 600.119 643.306 650.494 590.09 650.494C565.608 650.494 550.952 654.422 533.466 663.991C531.042 665.318 524.14 669.309 520.099 671.645C518.606 672.508 517.504 673.146 517.163 673.339C510.151 677.316 504.03 680.479 497.193 683.539C489.657 686.913 481.607 689.976 472.632 692.812C439.321 703.339 416.659 715.729 392.496 735.586C385.503 741.334 378.278 747.755 368.994 756.386C365.928 759.235 357.422 767.249 350.717 773.567C346.848 777.212 343.578 780.292 342.298 781.491C309.52 812.182 260.043 837.878 216.589 844.352C163.98 852.191 124.287 832.706 105.492 782.064C98.0521 762.017 98.7008 736.56 106.443 701.885C109.703 687.282 114.172 671.105 120.486 650.546C122.97 642.456 125.624 634.043 129.381 622.296C130.435 619 134.335 606.832 134.104 607.553C136.032 601.532 137.498 596.94 138.937 592.407C155.692 539.609 159.952 503.038 153.814 478.452C148.974 459.065 138.802 448.336 120.926 439.083C119.317 438.25 117.656 437.426 115.557 436.412C115.312 436.294 114.652 435.977 113.87 435.602C112.581 434.982 110.962 434.205 110.339 433.903C95.8082 426.853 89.8913 421.778 87.7168 412.048C84.9287 399.572 90.1568 380.3 105.42 350.526C111.99 337.71 118.137 325.482 124.924 311.786C126.616 308.372 130.406 300.689 133.837 293.732C136.702 287.923 139.318 282.62 140.252 280.735C151.064 258.923 157.415 246.929 163.893 236.519C174.351 219.711 184.656 208.354 199.872 197.068Z" fill="white"/>
</g>
</svg>
